<mxfile host="app.diagrams.net" modified="2020-12-06T05:12:18.668Z" agent="5.0 (Windows NT 10.0; Win64; x64) AppleWebKit/537.36 (KHTML, like Gecko) Chrome/87.0.4280.88 Safari/537.36" etag="qomEQqG1Gpxc82Ycp3mN" version="13.10.0" type="github">
  <diagram id="wsxGdpxYjvezdeQVRhYn" name="Page-1">
    <mxGraphModel dx="1038" dy="548" grid="1" gridSize="10" guides="1" tooltips="1" connect="1" arrows="1" fold="1" page="1" pageScale="1" pageWidth="850" pageHeight="1100" math="0" shadow="0">
      <root>
        <mxCell id="0" />
        <mxCell id="1" parent="0" />
        <mxCell id="hE9dmwo3JgJOcXYlDgNS-21" style="edgeStyle=orthogonalEdgeStyle;rounded=0;orthogonalLoop=1;jettySize=auto;html=1;exitX=0.5;exitY=1;exitDx=0;exitDy=0;entryX=0.5;entryY=0;entryDx=0;entryDy=0;" edge="1" parent="1" source="hE9dmwo3JgJOcXYlDgNS-2" target="hE9dmwo3JgJOcXYlDgNS-3">
          <mxGeometry relative="1" as="geometry" />
        </mxCell>
        <mxCell id="hE9dmwo3JgJOcXYlDgNS-2" value="Start" style="rounded=1;whiteSpace=wrap;html=1;" vertex="1" parent="1">
          <mxGeometry x="390" y="10" width="80" height="40" as="geometry" />
        </mxCell>
        <mxCell id="hE9dmwo3JgJOcXYlDgNS-23" style="edgeStyle=orthogonalEdgeStyle;rounded=0;orthogonalLoop=1;jettySize=auto;html=1;exitX=0.5;exitY=1;exitDx=0;exitDy=0;entryX=0.5;entryY=0;entryDx=0;entryDy=0;" edge="1" parent="1" source="hE9dmwo3JgJOcXYlDgNS-3" target="hE9dmwo3JgJOcXYlDgNS-22">
          <mxGeometry relative="1" as="geometry" />
        </mxCell>
        <mxCell id="hE9dmwo3JgJOcXYlDgNS-3" value="i = 2" style="rounded=0;whiteSpace=wrap;html=1;" vertex="1" parent="1">
          <mxGeometry x="385" y="80" width="90" height="40" as="geometry" />
        </mxCell>
        <mxCell id="hE9dmwo3JgJOcXYlDgNS-18" style="edgeStyle=orthogonalEdgeStyle;rounded=0;orthogonalLoop=1;jettySize=auto;html=1;exitX=0.5;exitY=1;exitDx=0;exitDy=0;entryX=0.5;entryY=0;entryDx=0;entryDy=0;" edge="1" parent="1" source="hE9dmwo3JgJOcXYlDgNS-5" target="hE9dmwo3JgJOcXYlDgNS-6">
          <mxGeometry relative="1" as="geometry" />
        </mxCell>
        <mxCell id="hE9dmwo3JgJOcXYlDgNS-5" value="Call the function&amp;nbsp;&lt;br&gt;&quot;is the number prime&quot;&lt;br&gt;with i as the input number&lt;br&gt;" style="rounded=0;whiteSpace=wrap;html=1;" vertex="1" parent="1">
          <mxGeometry x="337.5" y="220" width="195" height="60" as="geometry" />
        </mxCell>
        <mxCell id="hE9dmwo3JgJOcXYlDgNS-28" style="edgeStyle=orthogonalEdgeStyle;rounded=0;orthogonalLoop=1;jettySize=auto;html=1;exitX=0.5;exitY=1;exitDx=0;exitDy=0;entryX=0.391;entryY=0.015;entryDx=0;entryDy=0;entryPerimeter=0;" edge="1" parent="1" source="hE9dmwo3JgJOcXYlDgNS-6" target="hE9dmwo3JgJOcXYlDgNS-11">
          <mxGeometry relative="1" as="geometry" />
        </mxCell>
        <mxCell id="hE9dmwo3JgJOcXYlDgNS-29" style="edgeStyle=orthogonalEdgeStyle;rounded=0;orthogonalLoop=1;jettySize=auto;html=1;exitX=0;exitY=0.5;exitDx=0;exitDy=0;entryX=0.985;entryY=0.157;entryDx=0;entryDy=0;entryPerimeter=0;" edge="1" parent="1" source="hE9dmwo3JgJOcXYlDgNS-6" target="hE9dmwo3JgJOcXYlDgNS-7">
          <mxGeometry relative="1" as="geometry" />
        </mxCell>
        <mxCell id="hE9dmwo3JgJOcXYlDgNS-6" value="Is i Prime?" style="rhombus;whiteSpace=wrap;html=1;" vertex="1" parent="1">
          <mxGeometry x="385" y="310" width="95" height="80" as="geometry" />
        </mxCell>
        <mxCell id="hE9dmwo3JgJOcXYlDgNS-30" style="edgeStyle=orthogonalEdgeStyle;rounded=0;orthogonalLoop=1;jettySize=auto;html=1;exitX=0.5;exitY=1;exitDx=0;exitDy=0;entryX=0.436;entryY=-0.045;entryDx=0;entryDy=0;entryPerimeter=0;" edge="1" parent="1" source="hE9dmwo3JgJOcXYlDgNS-7" target="hE9dmwo3JgJOcXYlDgNS-8">
          <mxGeometry relative="1" as="geometry" />
        </mxCell>
        <mxCell id="hE9dmwo3JgJOcXYlDgNS-7" value="Print &quot;i is a prime number&quot;&lt;br&gt;followed by a new line" style="shape=parallelogram;perimeter=parallelogramPerimeter;whiteSpace=wrap;html=1;fixedSize=1;" vertex="1" parent="1">
          <mxGeometry x="97.5" y="340" width="212.5" height="60" as="geometry" />
        </mxCell>
        <mxCell id="hE9dmwo3JgJOcXYlDgNS-31" style="edgeStyle=orthogonalEdgeStyle;rounded=0;orthogonalLoop=1;jettySize=auto;html=1;exitX=0.5;exitY=1;exitDx=0;exitDy=0;entryX=0.5;entryY=0;entryDx=0;entryDy=0;" edge="1" parent="1" source="hE9dmwo3JgJOcXYlDgNS-8" target="hE9dmwo3JgJOcXYlDgNS-9">
          <mxGeometry relative="1" as="geometry" />
        </mxCell>
        <mxCell id="hE9dmwo3JgJOcXYlDgNS-8" value="count = count + 1" style="rounded=0;whiteSpace=wrap;html=1;" vertex="1" parent="1">
          <mxGeometry x="150" y="440" width="117.5" height="40" as="geometry" />
        </mxCell>
        <mxCell id="hE9dmwo3JgJOcXYlDgNS-32" style="edgeStyle=orthogonalEdgeStyle;rounded=0;orthogonalLoop=1;jettySize=auto;html=1;exitX=0.5;exitY=1;exitDx=0;exitDy=0;entryX=0.5;entryY=0;entryDx=0;entryDy=0;" edge="1" parent="1" source="hE9dmwo3JgJOcXYlDgNS-9" target="hE9dmwo3JgJOcXYlDgNS-10">
          <mxGeometry relative="1" as="geometry" />
        </mxCell>
        <mxCell id="hE9dmwo3JgJOcXYlDgNS-33" style="edgeStyle=orthogonalEdgeStyle;rounded=0;orthogonalLoop=1;jettySize=auto;html=1;exitX=1;exitY=0.5;exitDx=0;exitDy=0;" edge="1" parent="1" source="hE9dmwo3JgJOcXYlDgNS-9">
          <mxGeometry relative="1" as="geometry">
            <mxPoint x="430" y="550" as="targetPoint" />
          </mxGeometry>
        </mxCell>
        <mxCell id="hE9dmwo3JgJOcXYlDgNS-9" value="Is count &amp;gt; = 100?" style="rhombus;whiteSpace=wrap;html=1;" vertex="1" parent="1">
          <mxGeometry x="140" y="510" width="137.5" height="80" as="geometry" />
        </mxCell>
        <mxCell id="hE9dmwo3JgJOcXYlDgNS-10" value="end" style="rounded=1;whiteSpace=wrap;html=1;" vertex="1" parent="1">
          <mxGeometry x="160" y="610" width="92.5" height="30" as="geometry" />
        </mxCell>
        <mxCell id="hE9dmwo3JgJOcXYlDgNS-26" style="edgeStyle=orthogonalEdgeStyle;rounded=0;orthogonalLoop=1;jettySize=auto;html=1;exitX=0.5;exitY=1;exitDx=0;exitDy=0;" edge="1" parent="1" source="hE9dmwo3JgJOcXYlDgNS-11">
          <mxGeometry relative="1" as="geometry">
            <mxPoint x="430" y="190" as="targetPoint" />
            <Array as="points">
              <mxPoint x="443" y="640" />
              <mxPoint x="680" y="640" />
              <mxPoint x="680" y="190" />
            </Array>
          </mxGeometry>
        </mxCell>
        <mxCell id="hE9dmwo3JgJOcXYlDgNS-11" value="i = i + 1" style="rounded=0;whiteSpace=wrap;html=1;" vertex="1" parent="1">
          <mxGeometry x="400" y="580" width="85" height="40" as="geometry" />
        </mxCell>
        <mxCell id="hE9dmwo3JgJOcXYlDgNS-24" style="edgeStyle=orthogonalEdgeStyle;rounded=0;orthogonalLoop=1;jettySize=auto;html=1;exitX=0.5;exitY=1;exitDx=0;exitDy=0;entryX=0.462;entryY=-0.07;entryDx=0;entryDy=0;entryPerimeter=0;" edge="1" parent="1" source="hE9dmwo3JgJOcXYlDgNS-22" target="hE9dmwo3JgJOcXYlDgNS-5">
          <mxGeometry relative="1" as="geometry" />
        </mxCell>
        <mxCell id="hE9dmwo3JgJOcXYlDgNS-22" value="count = 0" style="rounded=0;whiteSpace=wrap;html=1;" vertex="1" parent="1">
          <mxGeometry x="385" y="150" width="90" height="30" as="geometry" />
        </mxCell>
        <mxCell id="hE9dmwo3JgJOcXYlDgNS-34" value="Yes" style="text;html=1;strokeColor=none;fillColor=none;align=center;verticalAlign=middle;whiteSpace=wrap;rounded=0;" vertex="1" parent="1">
          <mxGeometry x="345" y="330" width="40" height="20" as="geometry" />
        </mxCell>
        <mxCell id="hE9dmwo3JgJOcXYlDgNS-35" value="No" style="text;html=1;strokeColor=none;fillColor=none;align=center;verticalAlign=middle;whiteSpace=wrap;rounded=0;" vertex="1" parent="1">
          <mxGeometry x="280" y="530" width="40" height="20" as="geometry" />
        </mxCell>
        <mxCell id="hE9dmwo3JgJOcXYlDgNS-36" value="Yes" style="text;html=1;strokeColor=none;fillColor=none;align=center;verticalAlign=middle;whiteSpace=wrap;rounded=0;" vertex="1" parent="1">
          <mxGeometry x="200" y="590" width="40" height="20" as="geometry" />
        </mxCell>
        <mxCell id="hE9dmwo3JgJOcXYlDgNS-37" value="No&lt;br&gt;" style="text;html=1;strokeColor=none;fillColor=none;align=center;verticalAlign=middle;whiteSpace=wrap;rounded=0;" vertex="1" parent="1">
          <mxGeometry x="430" y="390" width="40" height="20" as="geometry" />
        </mxCell>
      </root>
    </mxGraphModel>
  </diagram>
</mxfile>
